<?xml version="1.0" encoding="UTF-8" standalone="no"?>
<svg
   viewBox="0 0 24 24"
   version="1.1"
   id="svg1"
   sodipodi:docname="map-marker.svg"
   inkscape:version="1.3.2 (091e20e, 2023-11-25)"
   xmlns:inkscape="http://www.inkscape.org/namespaces/inkscape"
   xmlns:sodipodi="http://sodipodi.sourceforge.net/DTD/sodipodi-0.dtd"
   xmlns="http://www.w3.org/2000/svg"
   xmlns:svg="http://www.w3.org/2000/svg">
  <defs
     id="defs1" />
  <sodipodi:namedview
     id="namedview1"
     pagecolor="#505050"
     bordercolor="#eeeeee"
     borderopacity="1"
     inkscape:showpageshadow="0"
     inkscape:pageopacity="0"
     inkscape:pagecheckerboard="0"
     inkscape:deskcolor="#505050"
     inkscape:zoom="34.791667"
     inkscape:cx="12"
     inkscape:cy="12"
     inkscape:window-width="1920"
     inkscape:window-height="1031"
     inkscape:window-x="0"
     inkscape:window-y="25"
     inkscape:window-maximized="1"
     inkscape:current-layer="svg1" />
  <path
     d="M12,6.5A2.5,2.5 0 0,1 14.5,9A2.5,2.5 0 0,1 12,11.5A2.5,2.5 0 0,1 9.5,9A2.5,2.5 0 0,1 12,6.5M12,2A7,7 0 0,1 19,9C19,14.25 12,22 12,22C12,22 5,14.25 5,9A7,7 0 0,1 12,2M12,4A5,5 0 0,0 7,9C7,10 7,12 12,18.71C17,12 17,10 17,9A5,5 0 0,0 12,4Z"
     id="path1" />
  <path
     style="fill:#ffffff;stroke-width:0.0287425"
     d="M 11.793695,21.736527 C 11.319523,21.201288 10.450342,20.124731 9.8668921,19.350011 7.6236072,16.371321 6.0664081,13.586225 5.4053419,11.3704 4.9939194,9.9913549 4.9156126,8.8527788 5.1491587,7.645509 5.2347984,7.2028116 5.44037,6.5637879 5.6408336,6.1171266 6.3570597,4.5212741 7.7765452,3.1626109 9.3988024,2.52018 10.281476,2.1706321 11.041477,2.0263473 12,2.0263473 c 0.82674,0 1.442429,0.09777 2.198802,0.3491653 1.061066,0.3526654 1.918316,0.886887 2.732628,1.70292 0.828917,0.8306688 1.342252,1.6644481 1.70951,2.7766572 0.683944,2.0712676 0.344919,4.2237752 -1.129491,7.1712572 -0.817886,1.635031 -1.872394,3.306412 -3.246029,5.14491 C 13.428163,20.291858 12.07801,21.94491 12,21.94491 c -0.01193,0 -0.10477,-0.09377 -0.206305,-0.208383 z m 0.435954,-3.306171 c 2.818087,-3.846361 4.283653,-6.447782 4.686867,-8.319323 0.08858,-0.4111778 0.111271,-1.392964 0.04236,-1.8331887 C 16.770764,7.0761695 16.19998,6.0141396 15.334132,5.2547638 14.6355,4.6420418 13.776215,4.2265893 12.867383,4.0621241 12.390055,3.9757454 11.607019,3.9763042 11.125345,4.0633672 9.247615,4.4027691 7.6920567,5.7994327 7.1865221,7.5998547 7.0271303,8.1675159 7.0130888,8.2873561 7.0144706,9.0682635 c 0.00115,0.6472228 0.00878,0.7674317 0.065293,1.0279295 0.3200028,1.475074 1.2439201,3.306974 2.9706944,5.890152 0.587444,0.878791 1.911223,2.737839 1.949542,2.737839 0.0079,0 0.111246,-0.132223 0.229649,-0.293828 z"
     id="path2" />
  <path
     style="fill:#ffffff;stroke-width:0.0287425"
     d="M 11.592743,11.455161 C 10.736752,11.298374 9.998193,10.697836 9.6880314,9.9063992 9.5563966,9.5705079 9.5196671,9.3295316 9.5346139,8.8998524 9.5466373,8.5542146 9.5593976,8.4746195 9.6423649,8.227731 9.912337,7.424367 10.559544,6.8164774 11.383587,6.5922865 c 0.324538,-0.088294 0.908288,-0.088294 1.232826,0 0.822963,0.223897 1.465399,0.8265722 1.743341,1.6354445 0.09431,0.2744498 0.09624,0.2898303 0.09658,0.7686762 3.4e-4,0.4747099 -0.0023,0.4963976 -0.09198,0.7616766 -0.269238,0.7962252 -0.910513,1.4116752 -1.70842,1.6396192 -0.235675,0.06733 -0.833052,0.09961 -1.06319,0.05746 z"
     id="path3" />
</svg>
